#!OML:ASF H:\Dans Jumps\Project 1\Capture day 1\Session 1\subject.ASF
:FULLY-SPECIFIED
:DEGREES
531
root 0.485896 17.5887 11.0587 11.2926 -2.1227 -2.91888
lowerback 4.32323 0.736657 -0.0845741
upperback 5.53719 0.941068 1.43096
thorax 3.25417 0.434278 1.50771
lowerneck -15.6839 0.887363 -1.66509
upperneck 34.1512 1.5376 0.850829
head 14.3106 0.5566 0.892776
rclavicle -1.70955e-014 -8.05078e-015
rhumerus -14.0593 -0.531663 -88.6251
rradius 28.9157
rwrist 26.2769
rhand -22.0703 -26.9595
rfingers 7.12502
rthumb 4.34084 -56.895
lclavicle -1.70955e-014 -8.05078e-015
lhumerus -13.6438 -12.3296 91.6119
lradius 23.3884
lwrist 12.0564
lhand -27.6724 -7.01001
lfingers 7.12502
lthumb -1.06949 22.9671
rfemur -21.1537 -1.69862 22.0454
rtibia 26.3823
rfoot -15.103 0.659877
rtoes 10.68
lfemur -18.8303 6.95823 -17.8397
ltibia 25.5856
lfoot -12.4296 9.47405
ltoes -14.6
532
root 0.484842 17.5881 11.0563 11.2693 -2.12317 -2.90705
lowerback 4.30033 0.735229 -0.079078
upperback 5.55123 0.938906 1.43345
thorax 3.28175 0.433168 1.50774
lowerneck -15.6918 0.886292 -1.66277
upperneck 34.1886 1.53811 0.844256
head 14.3295 0.555816 0.890325
rclavicle 6.70898e-015 7.50412e-015
rhumerus -14.0732 -0.689437 -88.5778
rradius 28.7955
rwrist 26.3989
rhand -22.081 -26.9449
rfingers 7.12502
rthumb 4.3306 -56.8807
lclavicle 6.70898e-015 7.50412e-015
lhumerus -13.6636 -12.1707 91.5829
lradius 23.2056
lwrist 11.8664
lhand -27.6529 -7.00623
lfingers 7.12502
lthumb -1.05064 22.9709
rfemur -21.1428 -1.69986 22.0356
rtibia 26.3963
rfoot -15.1098 0.657431
rtoes 10.6748
lfemur -18.8029 6.9233 -17.846
ltibia 25.5702
lfoot -12.4075 9.51767
ltoes -14.6094
533
root 0.483801 17.5876 11.0537 11.2447 -2.12505 -2.89435
lowerback 4.28042 0.734167 -0.076638
upperback 5.56529 0.937174 1.4366
thorax 3.30761 0.432154 1.51012
lowerneck -15.6816 0.881629 -1.67271
upperneck 34.2114 1.53275 0.848696
head 14.3375 0.552649 0.893182
rclavicle -6.43565e-015 8.44835e-016
rhumerus -14.1002 -0.833495 -88.5275
rradius 28.697
rwrist 26.5
rhand -22.0831 -26.9438
rfingers 7.12502
rthumb 4.32854 -56.8795
lclavicle -6.43565e-015 8.44835e-016
lhumerus -13.6844 -11.989 91.5534
lradius 23.021
lwrist 11.637
lhand -27.6341 -7.01497
lfingers 7.12502
lthumb -1.03256 22.9623
rfemur -21.1318 -1.69725 22.0246
rtibia 26.4112
rfoot -15.1166 0.652164
rtoes 10.6706
lfemur -18.7767 6.89254 -17.8533
ltibia 25.5572
lfoot -12.3872 9.55588
ltoes -14.6105
534
root 0.48277 17.5871 11.051 11.2201 -2.1276 -2.88437
lowerback 4.2659 0.732859 -0.0740565
upperback 5.57594 0.935147 1.44139
thorax 3.32688 0.431004 1.514
lowerneck -15.66 0.875268 -1.6891
upperneck 34.2281 1.52479 0.858192
head 14.3401 0.548319 0.898613
rclavicle 1.59525e-014 1.92821e-014
rhumerus -14.141 -0.969093 -88.4749
rradius 28.6095
rwrist 26.5882
rhand -22.0778 -26.9461
rfingers 7.12502
rthumb 4.3336 -56.8818
lclavicle 1.59525e-014 1.92821e-014
lhumerus -13.7159 -11.7848 91.525
lradius 22.838
lwrist 11.3687
lhand -27.6202 -7.04317
lfingers 7.12502
lthumb -1.01914 22.9341
rfemur -21.1209 -1.69195 22.0163
rtibia 26.4258
rfoot -15.1224 0.645228
rtoes 10.6704
lfemur -18.7527 6.86644 -17.8577
ltibia 25.5481
lfoot -12.3702 9.58775
ltoes -14.6092
535
root 0.481734 17.5865 11.0481 11.1947 -2.12915 -2.87434
lowerback 4.25898 0.731361 -0.0727443
upperback 5.5832 0.93293 1.44635
thorax 3.33834 0.42976 1.51859
lowerneck -15.6337 0.866033 -1.71143
upperneck 34.2409 1.51156 0.875373
head 14.3398 0.542078 0.907255
rclavicle 1.83876e-015 5.51627e-015
rhumerus -14.1876 -1.11766 -88.4195
rradius 28.5187
rwrist 26.6799
rhand -22.0597 -26.9456
rfingers 7.12502
rthumb 4.35108 -56.8809
lclavicle 1.83876e-015 5.51627e-015
lhumerus -13.7509 -11.5742 91.4966
lradius 22.6519
lwrist 11.0793
lhand -27.6183 -7.09768
lfingers 7.12502
lthumb -1.01726 22.8796
rfemur -21.1095 -1.68672 22.008
rtibia 26.4401
rfoot -15.1287 0.637481
rtoes 10.6703
lfemur -18.731 6.84476 -17.8617
ltibia 25.5434
lfoot -12.3574 9.61156
ltoes -14.6097
536
root 0.480674 17.5859 11.045 11.1697 -2.12918 -2.86612
lowerback 4.2592 0.728912 -0.0715418
upperback 5.58748 0.929515 1.45189
thorax 3.34271 0.427944 1.52374
lowerneck -15.613 0.856862 -1.73537
upperneck 34.2557 1.49851 0.894068
head 14.3416 0.535867 0.916907
rclavicle 1.54058e-015 -3.72721e-015
rhumerus -14.2325 -1.28533 -88.362
rradius 28.4126
rwrist 26.7846
rhand -22.0398 -26.9356
rfingers 7.12502
rthumb 4.37031 -56.8705
lclavicle 1.54058e-015 -3.72721e-015
lhumerus -13.7843 -11.3645 91.4664
lradius 22.4641
lwrist 10.788
lhand -27.6218 -7.1461
lfingers 7.12502
lthumb -1.02067 22.8312
rfemur -21.0984 -1.68211 22.0021
rtibia 26.4526
rfoot -15.133 0.62937
rtoes 10.666
lfemur -18.7132 6.82834 -17.8633
ltibia 25.5445
lfoot -12.3525 9.62591
ltoes -14.5964
537
root 0.479526 17.5852 11.0417 11.1474 -2.12736 -2.86114
lowerback 4.26592 0.725751 -0.0689192
upperback 5.58782 0.925261 1.45771
thorax 3.33937 0.425808 1.52823
lowerneck -15.5995 0.850104 -1.75135
upperneck 34.2713 1.48943 0.90504
head 14.3455 0.531284 0.922752
rclavicle -1.48095e-014 -3.13086e-015
rhumerus -14.2761 -1.4812 -88.3031
rradius 28.2921
rwrist 26.9119
rhand -22.0126 -26.9253
rfingers 7.12502
rthumb 4.39661 -56.8597
lclavicle -1.48095e-014 -3.13086e-015
lhumerus -13.8155 -11.1687 91.4339
lradius 22.2755
lwrist 10.519
lhand -27.6279 -7.18744
lfingers 7.12502
lthumb -1.02649 22.7898
rfemur -21.0904 -1.67356 22
rtibia 26.4634
rfoot -15.1365 0.61623
rtoes 10.661
lfemur -18.7026 6.81445 -17.8608
ltibia 25.5509
lfoot -12.3504 9.63484
ltoes -14.5815
538
root 0.478248 17.5844 11.0381 11.1268 -2.12535 -2.86276
lowerback 4.2763 0.723236 -0.0615252
upperback 5.58494 0.921985 1.4647
thorax 3.33065 0.424347 1.53115
lowerneck -15.5894 0.846644 -1.75725
upperneck 34.2901 1.48587 0.905581
head 14.3518 0.528894 0.923563
rclavicle -3.35449e-015 5.01931e-015
rhumerus -14.3149 -1.7128 -88.2416
rradius 28.15
rwrist 27.0658
rhand -21.9935 -26.9109
rfingers 7.12502
rthumb 4.415 -56.8449
lclavicle -3.35449e-015 5.01931e-015
lhumerus -13.8464 -10.9785 91.4003
lradius 22.0871
lwrist 10.2627
lhand -27.6249 -7.21406
lfingers 7.12502
lthumb -1.02359 22.7632
rfemur -21.0838 -1.65779 22.0052
rtibia 26.472
rfoot -15.1381 0.59807
rtoes 10.6562
lfemur -18.6976 6.80617 -17.8505
ltibia 25.5623
lfoot -12.3515 9.63859
ltoes -14.5643
539
root 0.476912 17.5837 11.0344 11.1095 -2.12375 -2.86805
lowerback 4.28599 0.720996 -0.0512975
upperback 5.58107 0.919136 1.47158
thorax 3.32132 0.423212 1.53237
lowerneck -15.5873 0.84748 -1.75062
upperneck 34.3123 1.4898 0.892439
head 14.3617 0.529394 0.917953
rclavicle 1.31446e-014 3.27995e-015
rhumerus -14.3569 -1.96004 -88.179
rradius 28.0088
rwrist 27.2283
rhand -21.9838 -26.9065
rfingers 7.12502
rthumb 4.42439 -56.8403
lclavicle 1.31446e-014 3.27995e-015
lhumerus -13.8734 -10.799 91.3649
lradius 21.902
lwrist 10.0307
lhand -27.6121 -7.21062
lfingers 7.12502
lthumb -1.01124 22.7667
rfemur -21.0808 -1.63752 22.0141
rtibia 26.4782
rfoot -15.1372 0.578012
rtoes 10.6554
lfemur -18.6996 6.80096 -17.8365
ltibia 25.5775
lfoot -12.3547 9.64084
ltoes -14.5411
540
root 0.475553 17.5829 11.0306 11.0953 -2.12514 -2.87431
lowerback 4.28924 0.720369 -0.0408978
upperback 5.57906 0.918383 1.47779
thorax 3.31749 0.423109 1.53289
lowerneck -15.5914 0.8509 -1.73486
upperneck 34.3354 1.49861 0.868774
head 14.3734 0.531696 0.907324
rclavicle -5.71506e-016 -7.8023e-015
rhumerus -14.3973 -2.20369 -88.1156
rradius 27.8734
rwrist 27.3851
rhand -21.9873 -26.9057
rfingers 7.12502
rthumb 4.42099 -56.8396
lclavicle -5.71506e-016 -7.8023e-015
lhumerus -13.8943 -10.6181 91.3284
lradius 21.716
lwrist 9.79487
lhand -27.5896 -7.19258
lfingers 7.12502
lthumb -0.989526 22.7849
rfemur -21.0804 -1.61263 22.0235
rtibia 26.4818
rfoot -15.1341 0.557607
rtoes 10.6559
lfemur -18.7059 6.79869 -17.8218
ltibia 25.5946
lfoot -12.3608 9.64245
ltoes -14.5059
541
root 0.474288 17.5822 11.0269 11.0836 -2.12748 -2.88239
lowerback 4.2854 0.720869 -0.0272115
upperback 5.57967 0.919125 1.48311
thorax 3.32038 0.423852 1.53075
lowerneck -15.5992 0.856069 -1.71112
upperneck 34.3596 1.51034 0.837452
head 14.3868 0.535214 0.892696
rclavicle 1.18028e-014 -1.14301e-015
rhumerus -14.4332 -2.44164 -88.0528
rradius 27.7434
rwrist 27.5301
rhand -21.9935 -26.9114
rfingers 7.12502
rthumb 4.41505 -56.8454
lclavicle 1.18028e-014 -1.14301e-015
lhumerus -13.9079 -10.441 91.291
lradius 21.5306
lwrist 9.56077
lhand -27.5669 -7.1668
lfingers 7.12502
lthumb -0.967604 22.8108
rfemur -21.0819 -1.58704 22.0345
rtibia 26.4833
rfoot -15.1302 0.538303
rtoes 10.6569
lfemur -18.715 6.79788 -17.8061
ltibia 25.6116
lfoot -12.3677 9.64425
ltoes -14.4743
542
root 0.473161 17.5816 11.0232 11.0735 -2.13148 -2.89322
lowerback 4.27305 0.722087 -0.0105185
upperback 5.58396 0.920744 1.48907
thorax 3.3319 0.425077 1.52776
lowerneck -15.6054 0.859812 -1.69005
upperneck 34.3811 1.52034 0.807323
head 14.3984 0.537845 0.87868
rclavicle -1.33683e-014 3.97569e-016
rhumerus -14.4564 -2.67222 -87.9899
rradius 27.6057
rwrist 27.6706
rhand -21.9995 -26.9201
rfingers 7.12502
rthumb 4.40922 -56.8542
lclavicle -1.33683e-014 3.97569e-016
lhumerus -13.915 -10.2635 91.2541
lradius 21.3477
lwrist 9.32648
lhand -27.5419 -7.13971
lfingers 7.12502
lthumb -0.943443 22.8379
rfemur -21.0834 -1.562 22.0479
rtibia 26.4823
rfoot -15.1253 0.522414
rtoes 10.667
lfemur -18.7246 6.79812 -17.7884
ltibia 25.6274
lfoot -12.3729 9.64854
ltoes -14.4465
543
root 0.472226 17.581 11.0196 11.064 -2.13438 -2.90249
lowerback 4.2597 0.72277 0.0045587
upperback 5.5876 0.921599 1.49598
thorax 3.34329 0.425846 1.52666
lowerneck -15.6009 0.862001 -1.67736
upperneck 34.3952 1.52871 0.781948
head 14.4042 0.539457 0.867611
rclavicle 8.77137e-015 7.05686e-015
rhumerus -14.4769 -2.89536 -87.9244
rradius 27.4653
rwrist 27.8084
rhand -21.9978 -26.9363
rfingers 7.12502
rthumb 4.41091 -56.8704
lclavicle 8.77137e-015 7.05686e-015
lhumerus -13.9241 -10.0689 91.2192
lradius 21.1707
lwrist 9.0746
lhand -27.5518 -7.20409
lfingers 7.12502
lthumb -0.953071 22.7735
rfemur -21.0838 -1.54327 22.0595
rtibia 26.4783
rfoot -15.1196 0.511138
rtoes 10.6783
lfemur -18.7341 6.79656 -17.7737
ltibia 25.6422
lfoot -12.3767 9.65594
ltoes -14.4286
